<svg width="20" height="20" viewBox="0 0 20 20" fill="none" xmlns="http://www.w3.org/2000/svg">
<g id="carbon:view-filled" clip-path="url(#clip0_1_1575)">
<path id="Vector" d="M9.61572 12.375C10.9274 12.375 11.9907 11.3117 11.9907 10C11.9907 8.68832 10.9274 7.625 9.61572 7.625C8.30405 7.625 7.24072 8.68832 7.24072 10C7.24072 11.3117 8.30405 12.375 9.61572 12.375Z" fill="#E6EAED"/>
<path id="Vector_2" d="M18.4861 9.79812C17.7878 7.99173 16.5754 6.42955 14.9989 5.30468C13.4224 4.1798 11.5508 3.54153 9.61547 3.46875C7.68015 3.54153 5.80858 4.1798 4.23206 5.30468C2.65554 6.42955 1.44319 7.99173 0.744845 9.79812C0.697682 9.92858 0.697682 10.0714 0.744845 10.2019C1.44319 12.0083 2.65554 13.5704 4.23206 14.6953C5.80858 15.8202 7.68015 16.4585 9.61547 16.5312C11.5508 16.4585 13.4224 15.8202 14.9989 14.6953C16.5754 13.5704 17.7878 12.0083 18.4861 10.2019C18.5333 10.0714 18.5333 9.92858 18.4861 9.79812ZM9.61547 13.8594C8.85216 13.8594 8.10599 13.633 7.47132 13.209C6.83665 12.7849 6.34198 12.1821 6.04987 11.4769C5.75777 10.7717 5.68134 9.99572 5.83025 9.24707C5.97917 8.49843 6.34674 7.81075 6.88648 7.27101C7.42622 6.73127 8.1139 6.3637 8.86254 6.21478C9.61119 6.06587 10.3872 6.1423 11.0924 6.4344C11.7976 6.72651 12.4004 7.22118 12.8244 7.85585C13.2485 8.49052 13.4748 9.23669 13.4748 10C13.4733 11.0231 13.0662 12.0038 12.3427 12.7273C11.6193 13.4507 10.6386 13.8578 9.61547 13.8594Z" fill="#E6EAED"/>
</g>
<defs>
<clipPath id="clip0_1_1575">
<rect width="19" height="19" fill="white" transform="translate(0.115723 0.5)"/>
</clipPath>
</defs>
</svg>
