<svg width="20" height="20" viewBox="0 0 20 20" fill="none" xmlns="http://www.w3.org/2000/svg">
<g id="ic:round-access-time-filled">
<path id="Vector" d="M10.1031 2.0835C5.75173 2.0835 2.22803 5.63016 2.22803 10.0002C2.22803 14.3702 5.75173 17.9168 10.1031 17.9168C14.4624 17.9168 17.994 14.3702 17.994 10.0002C17.994 5.63016 14.4624 2.0835 10.1031 2.0835ZM13.2642 13.1668C13.1913 13.2402 13.1047 13.2984 13.0093 13.3382C12.9139 13.3779 12.8117 13.3983 12.7085 13.3983C12.6052 13.3983 12.503 13.3779 12.4076 13.3382C12.3123 13.2984 12.2257 13.2402 12.1527 13.1668L9.55922 10.5622C9.48473 10.4889 9.42548 10.4015 9.38488 10.305C9.34429 10.2085 9.32316 10.1049 9.32273 10.0002V6.8335C9.32273 6.39808 9.67746 6.04183 10.111 6.04183C10.5446 6.04183 10.8993 6.39808 10.8993 6.8335V9.67558L13.2642 12.0506C13.5717 12.3593 13.5717 12.8581 13.2642 13.1668Z" fill="#E6EAED"/>
</g>
</svg>
