<svg width="140" height="33" viewBox="0 0 140 33" fill="none" xmlns="http://www.w3.org/2000/svg">
<g id="Logo" clip-path="url(#clip0_1_642)">
<g id="Group">
<path id="Vector" d="M57.9763 8.87305V24.681H53.594L47.5784 17.4982V24.681H42.3794V8.87305H46.7617L52.7773 16.0558V8.87305H57.9763Z" fill="#2D2D2D"/>
<path id="Vector_2" d="M63.2334 24.0835C62.1397 23.5372 61.2866 22.7723 60.6668 21.8034C60.047 20.8345 59.7407 19.7273 59.7407 18.4961C59.7407 17.265 60.047 16.1577 60.6668 15.1888C61.2866 14.22 62.1397 13.4623 63.2334 12.916C64.3272 12.3769 65.5595 12.1001 66.9303 12.1001C68.3157 12.1001 69.5553 12.3696 70.6491 12.916C71.7428 13.4551 72.5959 14.2127 73.2011 15.1888C73.8136 16.1577 74.1199 17.265 74.1199 18.4961C74.1199 19.7273 73.8136 20.8345 73.2011 21.8034C72.5886 22.7723 71.7428 23.5372 70.6491 24.0835C69.5553 24.6299 68.3157 24.9067 66.9303 24.9067C65.5595 24.9067 64.3272 24.6299 63.2334 24.0835ZM68.374 20.2882C68.7532 19.8584 68.9428 19.261 68.9428 18.4961C68.9428 17.7312 68.7532 17.1339 68.374 16.7114C67.9949 16.2888 67.5136 16.0776 66.9303 16.0776C66.3397 16.0776 65.8584 16.2888 65.4866 16.7114C65.1074 17.1339 64.9178 17.7239 64.9178 18.4961C64.9178 19.2683 65.1074 19.8657 65.4866 20.2882C65.8657 20.718 66.347 20.9292 66.9303 20.9292C67.5209 20.9292 68.0022 20.718 68.374 20.2882Z" fill="#2D2D2D"/>
<path id="Vector_3" d="M78.5606 24.0835C77.4668 23.5372 76.6137 22.7723 75.9939 21.8034C75.3741 20.8345 75.0679 19.7273 75.0679 18.4961C75.0679 17.265 75.3741 16.1577 75.9939 15.1888C76.6137 14.22 77.4668 13.4623 78.5606 12.916C79.6543 12.3769 80.8866 12.1001 82.2575 12.1001C83.6429 12.1001 84.8825 12.3696 85.9762 12.916C87.07 13.4551 87.9231 14.2127 88.5283 15.1888C89.1408 16.1577 89.447 17.265 89.447 18.4961C89.447 19.7273 89.1408 20.8345 88.5283 21.8034C87.9158 22.7723 87.07 23.5372 85.9762 24.0835C84.8825 24.6299 83.6429 24.9067 82.2575 24.9067C80.8866 24.9067 79.6543 24.6299 78.5606 24.0835ZM83.7012 20.2882C84.0804 19.8584 84.27 19.261 84.27 18.4961C84.27 17.7312 84.0804 17.1339 83.7012 16.7114C83.322 16.2888 82.8408 16.0776 82.2575 16.0776C81.6668 16.0776 81.1856 16.2888 80.8137 16.7114C80.4345 17.1339 80.245 17.7239 80.245 18.4961C80.245 19.2683 80.4345 19.8657 80.8137 20.2882C81.1929 20.718 81.6741 20.9292 82.2575 20.9292C82.8408 20.9292 83.3293 20.718 83.7012 20.2882Z" fill="#2D2D2D"/>
<path id="Vector_4" d="M93.2754 24.6009C92.0358 24.3095 91.0077 23.9089 90.2129 23.4135L91.9337 19.5307C92.6848 19.9678 93.5306 20.3175 94.4639 20.5797C95.3973 20.842 96.2941 20.9731 97.1546 20.9731C97.891 20.9731 98.4233 20.9003 98.7369 20.7618C99.0504 20.6162 99.2108 20.4049 99.2108 20.1208C99.2108 19.793 99.0066 19.538 98.591 19.3777C98.1754 19.2102 97.4973 19.0281 96.5421 18.8387C95.3244 18.5837 94.3035 18.3069 93.4941 18.0155C92.6775 17.7241 91.9702 17.2433 91.3723 16.5731C90.7671 15.9029 90.4681 14.9996 90.4681 13.8486C90.4681 12.8579 90.7452 11.9546 91.3066 11.1387C91.8608 10.3228 92.6994 9.689 93.8077 9.22278C94.916 8.75655 96.2577 8.52344 97.84 8.52344C98.9264 8.52344 99.991 8.63999 101.041 8.87311C102.091 9.10622 103.01 9.4486 103.812 9.90026L102.208 13.7612C100.655 12.9817 99.1889 12.5883 97.7962 12.5883C96.4254 12.5883 95.74 12.9162 95.74 13.5791C95.74 13.8923 95.9441 14.1327 96.3525 14.293C96.7608 14.4532 97.4316 14.6208 98.365 14.8029C99.5681 15.0287 100.589 15.291 101.42 15.5824C102.251 15.8738 102.966 16.3546 103.579 17.0175C104.191 17.6804 104.497 18.5837 104.497 19.7274C104.497 20.7181 104.22 21.6215 103.659 22.4228C103.105 23.2314 102.266 23.8652 101.158 24.346C100.049 24.8195 98.7077 25.0599 97.1254 25.0599C95.7983 25.038 94.5223 24.8923 93.2754 24.6009Z" fill="#2D2D2D"/>
<path id="Vector_5" d="M108.733 24.0835C107.64 23.5372 106.787 22.7723 106.167 21.8034C105.547 20.8345 105.241 19.7273 105.241 18.4961C105.241 17.265 105.547 16.1577 106.167 15.1888C106.787 14.22 107.64 13.4623 108.733 12.916C109.827 12.3769 111.059 12.1001 112.43 12.1001C113.816 12.1001 115.055 12.3696 116.149 12.916C117.243 13.4551 118.096 14.2127 118.701 15.1888C119.314 16.1577 119.62 17.265 119.62 18.4961C119.62 19.7273 119.314 20.8345 118.701 21.8034C118.089 22.7723 117.243 23.5372 116.149 24.0835C115.055 24.6299 113.816 24.9067 112.43 24.9067C111.059 24.9067 109.827 24.6299 108.733 24.0835ZM113.881 20.2882C114.261 19.8584 114.45 19.261 114.45 18.4961C114.45 17.7312 114.261 17.1339 113.881 16.7114C113.502 16.2888 113.021 16.0776 112.438 16.0776C111.847 16.0776 111.366 16.2888 110.994 16.7114C110.615 17.1339 110.425 17.7239 110.425 18.4961C110.425 19.2683 110.615 19.8657 110.994 20.2882C111.373 20.718 111.854 20.9292 112.438 20.9292C113.021 20.9292 113.502 20.718 113.881 20.2882Z" fill="#2D2D2D"/>
<path id="Vector_6" d="M126.744 13.0035H129.434V16.7261H126.904V24.6737H121.793V16.7333H120.094V13.0108H121.793V12.9453C121.793 11.3353 122.274 10.0605 123.236 9.12077C124.199 8.18103 125.555 7.70752 127.305 7.70752C127.881 7.70752 128.435 7.75851 128.975 7.86779C129.515 7.96977 129.967 8.12275 130.331 8.31944L129.114 11.8671C128.691 11.6704 128.304 11.5757 127.961 11.5757C127.582 11.5757 127.283 11.6923 127.072 11.9254C126.853 12.1585 126.744 12.5155 126.744 12.9963V13.0035Z" fill="#2D2D2D"/>
<path id="Vector_7" d="M139.964 24.251C139.198 24.6881 138.148 24.9066 136.821 24.9066C135.085 24.9066 133.751 24.4914 132.818 23.6536C131.884 22.8159 131.418 21.5629 131.418 19.8947V16.7331H129.719V13.0106H131.418V9.55762H136.529V13.0106H139.059V16.7331H136.529V19.851C136.529 20.2298 136.624 20.5212 136.821 20.7324C137.018 20.9437 137.273 21.0457 137.586 21.0457C138.024 21.0457 138.41 20.9364 138.739 20.7106L139.964 24.251Z" fill="#2D2D2D"/>
</g>
<g id="Group_2">
<path id="Vector_8" d="M6.85417 28.0831C6.50417 28.0758 6.22708 27.9738 6.09583 27.9228C5.81146 27.8062 4.88542 27.3182 4.88542 26.1016V6.89167C4.88542 5.67511 5.81146 5.18703 6.09583 5.07048C6.38021 4.95392 7.37188 4.62611 8.24687 5.47114L11.6448 1.96717C9.63229 0.0148475 6.77396 -0.516941 4.18542 0.583059C1.60417 1.67577 0 4.09432 0 6.89895V26.1016C0 28.9062 1.60417 31.3248 4.18542 32.4175C5.06042 32.789 5.95729 32.9711 6.85417 32.9784V28.0831Z" fill="#157EFF"/>
<path id="Vector_9" d="M30.2675 0.575574C29.3852 0.204051 28.4664 0.0146484 27.5623 0.0146484V4.90273C27.9269 4.90273 28.2258 5.00471 28.3571 5.06299C28.6414 5.17955 29.5675 5.66763 29.5675 6.88418V26.0868C29.5675 27.3034 28.6414 27.7915 28.3571 27.908C28.0727 28.0246 27.081 28.3524 26.206 27.5074L22.8081 31.0113C24.1279 32.2935 25.8123 32.9564 27.5477 32.9564C28.4591 32.9564 29.3779 32.7742 30.2675 32.3954C32.8487 31.3027 34.4529 28.8842 34.4529 26.0795V6.89147C34.4529 4.09412 32.8487 1.66829 30.2675 0.575574Z" fill="#157EFF"/>
<path id="Vector_10" d="M13.7742 10.7741L17.2377 7.39395L11.645 1.9668L8.24707 5.47077L13.7742 10.7741Z" fill="url(#paint0_linear_1_642)"/>
<path id="Vector_11" d="M20.7304 22.2402L17.2085 25.6422L22.8085 31.0257L26.2064 27.5217L20.7304 22.2402Z" fill="url(#paint1_linear_1_642)"/>
<path id="Vector_12" d="M11.6447 31.026L24.8061 18.2995C25.5207 17.6075 25.7467 16.5512 25.3749 15.6333C25.003 14.7154 24.1061 14.1108 23.1072 14.1108H17.3467L26.2134 5.47104C26.6728 5.02667 27.1613 4.91011 27.5697 4.91011V0.0220314C25.8342 0.0147466 24.1426 0.684946 22.8155 1.96707L22.8082 1.97435L9.63945 14.8028C8.92487 15.4949 8.70612 16.5512 9.08529 17.4691C9.46445 18.3869 10.354 18.9916 11.3457 18.9916H17.077L8.25404 27.522C7.78008 27.981 7.26966 28.0975 6.86133 28.083V32.971C8.60404 32.9856 10.3103 32.3154 11.6447 31.026Z" fill="url(#paint2_linear_1_642)"/>
</g>
</g>
<defs>
<linearGradient id="paint0_linear_1_642" x1="15.4724" y1="9.15649" x2="9.96434" y2="3.64321" gradientUnits="userSpaceOnUse">
<stop stop-color="white"/>
<stop offset="0.2299" stop-color="#CEE4FF"/>
<stop offset="0.7509" stop-color="#52A0FF"/>
<stop offset="1" stop-color="#157EFF"/>
</linearGradient>
<linearGradient id="paint1_linear_1_642" x1="24.4827" y1="29.3538" x2="18.9961" y2="23.8621" gradientUnits="userSpaceOnUse">
<stop stop-color="#157EFF"/>
<stop offset="0.2299" stop-color="#4699FF"/>
<stop offset="0.7509" stop-color="#C2DDFF"/>
<stop offset="1" stop-color="white"/>
</linearGradient>
<linearGradient id="paint2_linear_1_642" x1="6.99991" y1="16.4952" x2="27.1544" y2="16.4952" gradientUnits="userSpaceOnUse">
<stop stop-color="#157EFF"/>
<stop offset="0.4253" stop-color="#04A3CE"/>
<stop offset="0.5073" stop-color="#00AAC4"/>
<stop offset="1" stop-color="#157EFF"/>
</linearGradient>
<clipPath id="clip0_1_642">
<rect width="140" height="33" fill="white"/>
</clipPath>
</defs>
</svg>
