<svg width="20" height="20" viewBox="0 0 20 20" fill="none" xmlns="http://www.w3.org/2000/svg">
<g id="Menu">
<path id="Vector3" d="M0.624984 4.24997H19.375C19.72 4.24997 19.9999 3.96995 19.9999 3.62498C19.9999 3.27997 19.7199 3 19.375 3H0.624984C0.27997 3 0 3.28002 0 3.62498C0 3.96995 0.280022 4.24997 0.624984 4.24997Z" fill="black"/>
<path id="Vector2" d="M19.375 9.375H0.624984C0.27997 9.375 0 9.65502 0 9.99998C0 10.3449 0.280022 10.625 0.624984 10.625H19.375C19.72 10.625 19.9999 10.3449 19.9999 9.99998C19.9999 9.65502 19.72 9.375 19.375 9.375Z" fill="black"/>
<path id="Vector1" d="M19.375 15.75H7.62498C7.27997 15.75 7 16.03 7 16.375C7 16.72 7.28002 17 7.62498 17H19.375C19.72 17 20 16.7199 20 16.375C20 16.03 19.72 15.75 19.375 15.75Z" fill="black"/>
</g>
</svg>
